<svg width="58" height="54" viewBox="0 0 58 54" fill="none" xmlns="http://www.w3.org/2000/svg">
<g id="Group">
<path id="Vector" fill-rule="evenodd" clip-rule="evenodd" d="M33.35 0.982498C39.8876 0.982498 46.1574 3.22133 50.7802 7.20648C55.403 11.1916 58 16.5966 58 22.2325C58 27.8683 55.403 33.2734 50.7802 37.2585C46.1574 41.2437 39.8876 43.4825 33.35 43.4825H31.9V45.9575C31.9 46.2893 31.8241 46.6178 31.6768 46.9244C31.5294 47.2309 31.3134 47.5093 31.0411 47.7438C30.7688 47.9783 30.4456 48.1643 30.0899 48.291C29.7342 48.4178 29.353 48.4828 28.9681 48.4825C21.8341 48.4775 14.6073 46.425 9.1234 42.2225C3.5902 37.9775 0.0058 31.67 0 23.505V22.2325C0 16.5966 2.59705 11.1916 7.21982 7.20648C11.8426 3.22133 18.1124 0.982498 24.65 0.982498H33.35ZM18.85 18.4825C17.6963 18.4825 16.5899 18.8776 15.7741 19.5808C14.9583 20.2841 14.5 21.2379 14.5 22.2325C14.5 23.2271 14.9583 24.1809 15.7741 24.8841C16.5899 25.5874 17.6963 25.9825 18.85 25.9825C20.0037 25.9825 21.1101 25.5874 21.9259 24.8841C22.7417 24.1809 23.2 23.2271 23.2 22.2325C23.2 21.2379 22.7417 20.2841 21.9259 19.5808C21.1101 18.8776 20.0037 18.4825 18.85 18.4825ZM39.15 18.4825C37.9963 18.4825 36.8899 18.8776 36.0741 19.5808C35.2583 20.2841 34.8 21.2379 34.8 22.2325C34.8 23.2271 35.2583 24.1809 36.0741 24.8841C36.8899 25.5874 37.9963 25.9825 39.15 25.9825C40.3037 25.9825 41.4101 25.5874 42.2259 24.8841C43.0417 24.1809 43.5 23.2271 43.5 22.2325C43.5 21.2379 43.0417 20.2841 42.2259 19.5808C41.4101 18.8776 40.3037 18.4825 39.15 18.4825Z" fill="#E9FBFC"/>
</g>
</svg>
